<svg width="15" height="16" viewBox="0 0 15 16" fill="none" xmlns="http://www.w3.org/2000/svg">
<path d="M13.9626 7.15147L13.9579 7.14942L1.4458 1.95977C1.34056 1.91572 1.22604 1.89845 1.11249 1.90949C0.998941 1.92053 0.889898 1.95955 0.795117 2.02305C0.694979 2.08867 0.612724 2.17815 0.555754 2.28345C0.498784 2.38875 0.468886 2.50655 0.46875 2.62628V5.94532C0.468806 6.10899 0.525955 6.26751 0.630347 6.39356C0.73474 6.51961 0.879835 6.6053 1.04063 6.63585L7.86475 7.89766C7.89156 7.90275 7.91576 7.91703 7.93317 7.93805C7.95058 7.95907 7.9601 7.98551 7.9601 8.0128C7.9601 8.04009 7.95058 8.06653 7.93317 8.08755C7.91576 8.10857 7.89156 8.12285 7.86475 8.12794L1.04092 9.38975C0.880173 9.42023 0.735086 9.5058 0.630647 9.63173C0.526208 9.75767 0.468955 9.91609 0.46875 10.0797V13.3993C0.468672 13.5136 0.496979 13.6262 0.551129 13.7269C0.60528 13.8276 0.68358 13.9132 0.779004 13.9762C0.893789 14.0524 1.0285 14.0932 1.16631 14.0934C1.26212 14.0933 1.35694 14.0741 1.44521 14.0368L13.957 8.87676L13.9626 8.87413C14.131 8.80175 14.2745 8.68158 14.3754 8.52849C14.4762 8.3754 14.5299 8.19611 14.5299 8.0128C14.5299 7.82949 14.4762 7.65019 14.3754 7.49711C14.2745 7.34402 14.131 7.22385 13.9626 7.15147Z" fill="white"/>
</svg>
