<svg width="17" height="17" viewBox="0 0 17 17" fill="none" xmlns="http://www.w3.org/2000/svg">
<path d="M16.25 14.8438L11.4031 9.99609C12.1842 8.92271 12.6044 7.62907 12.6031 6.30156C12.6031 2.82695 9.77617 0 6.30156 0C2.82695 0 0 2.82695 0 6.30156C0 9.77617 2.82695 12.6031 6.30156 12.6031C7.62907 12.6044 8.92271 12.1842 9.99609 11.4031L14.8438 16.25L16.25 14.8438ZM6.30156 10.6129C5.44875 10.613 4.61507 10.3601 3.90595 9.8864C3.19683 9.41265 2.64413 8.73925 2.31774 7.95138C1.99135 7.1635 1.90593 6.29652 2.07228 5.46009C2.23864 4.62366 2.6493 3.85535 3.25233 3.25233C3.85535 2.6493 4.62366 2.23864 5.46009 2.07228C6.29652 1.90593 7.1635 1.99135 7.95138 2.31774C8.73925 2.64413 9.41265 3.19683 9.8864 3.90595C10.3601 4.61507 10.613 5.44875 10.6129 6.30156C10.6115 7.44459 10.1569 8.54041 9.34865 9.34865C8.54041 10.1569 7.44459 10.6115 6.30156 10.6129Z" fill="white"/>
</svg>
