<svg width="15" height="16" viewBox="0 0 15 16" fill="none" xmlns="http://www.w3.org/2000/svg">
<path d="M10.5064 4.28711L2.53389 12.2793L2.05078 13.4488L3.22031 12.9657L11.2125 4.99316L10.5064 4.28711Z" stroke="#5271FF" stroke-width="2" stroke-linecap="round" stroke-linejoin="round"/>
<path d="M12.1016 2.69247L11.7562 3.03759L12.4623 3.74364L12.8077 3.39823C12.8983 3.30753 12.9492 3.18456 12.9492 3.05634C12.9492 2.92812 12.8983 2.80514 12.8077 2.71444L12.7857 2.69247C12.7408 2.64755 12.6875 2.61192 12.6288 2.58761C12.5701 2.56329 12.5072 2.55078 12.4437 2.55078C12.3802 2.55078 12.3173 2.56329 12.2586 2.58761C12.1999 2.61192 12.1466 2.64755 12.1016 2.69247Z" stroke="#5271FF" stroke-width="2" stroke-linecap="round" stroke-linejoin="round"/>
</svg>
