<svg width="16" height="14" viewBox="0 0 16 14" fill="none" xmlns="http://www.w3.org/2000/svg">
<path d="M15.3125 0.8125H0.6875C0.538316 0.8125 0.395242 0.871763 0.289752 0.977253C0.184263 1.08274 0.125 1.22582 0.125 1.375V12.625C0.125 12.7742 0.184263 12.9173 0.289752 13.0227C0.395242 13.1282 0.538316 13.1875 0.6875 13.1875H15.3125C15.4617 13.1875 15.6048 13.1282 15.7102 13.0227C15.8157 12.9173 15.875 12.7742 15.875 12.625V1.375C15.875 1.22582 15.8157 1.08274 15.7102 0.977253C15.6048 0.871763 15.4617 0.8125 15.3125 0.8125ZM8.34523 8.00652C8.24652 8.08327 8.12504 8.12493 8 8.12493C7.87496 8.12493 7.75348 8.08327 7.65477 8.00652L2.14824 3.72379L2.83871 2.83574L8 6.84988L13.1613 2.83574L13.8518 3.72379L8.34523 8.00652Z" fill="white"/>
</svg>
