<svg width="14" height="14" viewBox="0 0 14 14" fill="none" xmlns="http://www.w3.org/2000/svg">
<path d="M10.3584 8.69334L9.26351 9.30869C9.13212 9.38249 8.98012 9.41135 8.83074 9.39089C8.68136 9.37042 8.54279 9.30174 8.4362 9.19534L4.78189 5.54969C4.67532 5.44331 4.60653 5.30508 4.58602 5.15607C4.5655 5.00706 4.59439 4.85545 4.66827 4.72434L5.28509 3.63206C5.39612 3.43547 5.43959 3.20803 5.40886 2.98447C5.37813 2.76092 5.27489 2.55355 5.11491 2.39403L3.4739 0.756914C3.37772 0.660914 3.26353 0.584759 3.13783 0.532802C3.01214 0.480844 2.87742 0.454102 2.74137 0.454102C2.60531 0.454102 2.47059 0.480844 2.3449 0.532802C2.21921 0.584759 2.10501 0.660914 2.00883 0.756914L1.26373 1.49973C0.828013 1.9344 0.550472 2.50192 0.475234 3.11205C0.399997 3.72217 0.531383 4.33988 0.8485 4.86695L1.22236 5.48857C3.13158 8.663 5.8264 11.2948 9.04831 13.1314L9.12214 13.1737C10.2228 13.8011 11.5826 13.6183 12.4638 12.7396L13.2419 11.9634C13.3382 11.8674 13.4145 11.7535 13.4666 11.6281C13.5187 11.5027 13.5455 11.3683 13.5455 11.2326C13.5455 11.0969 13.5187 10.9625 13.4666 10.8371C13.4145 10.7117 13.3382 10.5977 13.2419 10.5018L11.5999 8.86363C11.44 8.70383 11.2321 8.60066 11.0079 8.56991C10.7837 8.53916 10.5556 8.58251 10.3584 8.69334Z" fill="white"/>
</svg>
