<svg width="18" height="18" viewBox="0 0 18 18" fill="none" xmlns="http://www.w3.org/2000/svg">
<path d="M9.19548 3.56044C9.14314 3.51037 9.0735 3.48242 9.00106 3.48242C8.92863 3.48242 8.85899 3.51037 8.80665 3.56044L2.33438 9.74337C2.30689 9.76966 2.28503 9.80126 2.2701 9.83625C2.25518 9.87124 2.2475 9.90889 2.24755 9.94693L2.24649 15.7498C2.24649 16.0482 2.36502 16.3343 2.576 16.5453C2.78697 16.7563 3.07312 16.8748 3.37149 16.8748H6.75001C6.89919 16.8748 7.04227 16.8156 7.14776 16.7101C7.25324 16.6046 7.31251 16.4615 7.31251 16.3123V11.5311C7.31251 11.4565 7.34214 11.3849 7.39488 11.3322C7.44763 11.2794 7.51917 11.2498 7.59376 11.2498H10.4063C10.4809 11.2498 10.5524 11.2794 10.6051 11.3322C10.6579 11.3849 10.6875 11.4565 10.6875 11.5311V16.3123C10.6875 16.4615 10.7468 16.6046 10.8523 16.7101C10.9578 16.8156 11.1008 16.8748 11.25 16.8748H14.6271C14.9255 16.8748 15.2116 16.7563 15.4226 16.5453C15.6336 16.3343 15.7521 16.0482 15.7521 15.7498V9.94693C15.7522 9.90889 15.7445 9.87124 15.7296 9.83625C15.7146 9.80126 15.6928 9.76966 15.6653 9.74337L9.19548 3.56044Z" fill="#B8B8B8"/>
<path d="M17.2586 8.58341L14.6289 6.06762V2.25C14.6289 2.10082 14.5696 1.95774 14.4641 1.85225C14.3586 1.74676 14.2156 1.6875 14.0664 1.6875H12.3789C12.2297 1.6875 12.0866 1.74676 11.9811 1.85225C11.8756 1.95774 11.8164 2.10082 11.8164 2.25V3.375L9.78013 1.42805C9.58958 1.23539 9.30622 1.125 9.00001 1.125C8.69485 1.125 8.4122 1.23539 8.22165 1.4284L0.743919 8.58271C0.525248 8.79364 0.497826 9.14064 0.69681 9.36915C0.746778 9.42683 0.80796 9.47374 0.876634 9.50703C0.945307 9.54031 1.02003 9.55927 1.09627 9.56276C1.1725 9.56625 1.24865 9.55418 1.32007 9.5273C1.3915 9.50043 1.45671 9.4593 1.51173 9.40642L8.80665 2.43563C8.85899 2.38556 8.92863 2.35761 9.00106 2.35761C9.0735 2.35761 9.14314 2.38556 9.19548 2.43563L16.4911 9.40642C16.5986 9.50948 16.7425 9.56572 16.8914 9.56282C17.0403 9.55992 17.1819 9.49811 17.2853 9.39095C17.5011 9.16735 17.4832 8.79821 17.2586 8.58341Z" fill="#B8B8B8"/>
</svg>
