<svg width="18" height="18" viewBox="0 0 18 18" fill="none" xmlns="http://www.w3.org/2000/svg">
<path d="M1.6875 6.1875V6.2107C1.68667 6.35565 1.63433 6.49559 1.53984 6.60551V6.60727C1.35 6.83156 1.125 7.23305 1.125 7.875C1.125 8.45684 1.31133 8.86746 1.53563 9.13746C1.63403 9.25723 1.68773 9.40749 1.6875 9.5625C1.6875 9.86087 1.80603 10.147 2.017 10.358C2.22798 10.569 2.51413 10.6875 2.8125 10.6875H3.09375C3.16834 10.6875 3.23988 10.6579 3.29262 10.6051C3.34537 10.5524 3.375 10.4808 3.375 10.4062V5.34375C3.375 5.26916 3.34537 5.19762 3.29262 5.14488C3.23988 5.09213 3.16834 5.0625 3.09375 5.0625H2.8125C2.51413 5.0625 2.22798 5.18103 2.017 5.39201C1.80603 5.60298 1.6875 5.88913 1.6875 6.1875Z" fill="#D5D5D5"/>
<path d="M15.8969 6.55825L15.8642 6.55228C15.8321 6.54614 15.8031 6.52898 15.7822 6.50376C15.7614 6.47854 15.75 6.44684 15.75 6.41411V2.17954C15.75 1.73517 15.455 1.33579 15.0156 1.18392C14.5965 1.03943 14.1599 1.1572 13.9018 1.4838C13.3529 2.13933 12.7494 2.74724 12.098 3.30103C11.2672 4.00415 10.4723 4.50513 9.74249 4.78849C9.68926 4.80878 9.64346 4.84475 9.61113 4.89165C9.5788 4.93854 9.56147 4.99415 9.56143 5.05111V10.5116C9.56152 10.6215 9.59384 10.729 9.65438 10.8208C9.71493 10.9126 9.80105 10.9847 9.9021 11.028C10.582 11.3195 11.3168 11.7955 12.0818 12.4441C12.7382 13.0029 13.346 13.6164 13.8987 14.2779C13.9872 14.3889 14.1002 14.4781 14.2289 14.5383C14.3576 14.5984 14.4984 14.6281 14.6405 14.6249C14.7653 14.6243 14.8892 14.6036 15.0075 14.5637C15.4585 14.4139 15.75 14.029 15.75 13.5842V9.33489C15.75 9.3017 15.7618 9.26959 15.7832 9.24424C15.8046 9.21889 15.8343 9.20194 15.8671 9.19638L15.8969 9.19146C16.2351 9.0997 16.875 8.707 16.875 7.87485C16.875 7.04271 16.2351 6.65001 15.8969 6.55825Z" fill="#D5D5D5"/>
<path d="M8.4375 11.25V5.34375C8.4375 5.26916 8.40787 5.19762 8.35512 5.14488C8.30238 5.09213 8.23084 5.0625 8.15625 5.0625H4.78125C4.70666 5.0625 4.63512 5.09213 4.58238 5.14488C4.52963 5.19762 4.5 5.26916 4.5 5.34375V16.0312C4.5 16.255 4.58889 16.4696 4.74713 16.6279C4.90536 16.7861 5.11997 16.875 5.34375 16.875H7.1877C7.36297 16.8765 7.53626 16.8378 7.69428 16.7619C7.85229 16.686 7.99084 16.575 8.0993 16.4373C8.2105 16.2948 8.28529 16.1273 8.31721 15.9493C8.34912 15.7714 8.3372 15.5883 8.28246 15.416C8.22551 15.2339 8.15484 15.0293 8.07961 14.8117C7.80152 14.0066 7.43484 13.5084 7.33711 12.3746C7.63113 12.3682 7.91094 12.2469 8.11662 12.0367C8.3223 11.8265 8.43748 11.5441 8.4375 11.25Z" fill="#D5D5D5"/>
</svg>
